<svg width="196" height="67" viewBox="0 0 196 67" fill="none" xmlns="http://www.w3.org/2000/svg">
<rect x="41.0005" y="51.812" width="32" height="1.54334" rx="0.771672" fill="#E3B873"/>
<rect x="123" y="51.812" width="32" height="1.54334" rx="0.771672" fill="#E3B873"/>
<path d="M114.851 47.7655L90.7306 38.8293C90.4221 38.7153 90.0793 38.8731 89.9655 39.1818C89.9653 39.1821 89.9653 39.1823 89.965 39.1826L87.2949 46.4507C87.1814 46.7595 87.3396 47.102 87.6484 47.2155H87.6489L90.4448 48.2421L89.8288 49.9204C89.7155 50.2292 89.8738 50.5712 90.1825 50.6847L95.7753 52.738L95.3643 53.8569C94.9908 54.8589 95.3393 55.987 96.2134 56.6032V59.6434H88.1974C87.8094 58.7564 87.0154 58.1123 86.0671 57.9158V56.6648C86.0671 56.3357 85.8006 56.069 85.4713 56.069H83.0694C82.7404 56.069 82.4736 56.3357 82.4736 56.6648V66.1965C82.4736 66.5258 82.7404 66.7923 83.0694 66.7923H85.4713C85.8006 66.7923 86.0671 66.5258 86.0671 66.1965V64.9457C87.0154 64.7489 87.8094 64.1051 88.1974 63.2178H96.2134V63.8136C96.2134 64.8007 97.0134 65.601 98.0005 65.601C98.9875 65.601 99.7878 64.8007 99.7878 63.8136V57.214C100.329 56.9455 100.748 56.4797 100.956 55.9122L101.367 54.7934L106.4 56.6403C106.466 56.6645 106.535 56.6768 106.605 56.6768C106.855 56.6768 107.079 56.521 107.165 56.2865L107.388 55.6782C109.327 56.043 111.194 54.7672 111.558 52.8288C111.693 52.1125 111.606 51.3722 111.308 50.7072L114.919 48.8528C115.212 48.7028 115.328 48.3438 115.178 48.051C115.11 47.918 114.994 47.8155 114.854 47.7638L114.851 47.7655ZM97.4047 57.146L97.898 57.3248C98.1225 57.4053 98.358 57.4515 98.5962 57.4618V59.6434H97.4047V57.146ZM84.8758 65.601H83.6652V57.2605H84.8758V65.601ZM87.2586 62.0265C87.2576 62.7836 86.7806 63.4584 86.0671 63.7119V59.1496C86.7806 59.4029 87.2576 60.0777 87.2586 60.835V62.0265ZM88.4687 60.835H98.5962V62.0265H88.4687V60.835ZM98.0005 64.4094C97.6714 64.4094 97.4047 64.1426 97.4047 63.8136V63.2178H98.5962V63.8136C98.5962 64.1426 98.3295 64.4094 98.0005 64.4094ZM100.249 54.3831L99.8378 55.5019C99.6108 56.119 98.9265 56.4355 98.309 56.209L97.1884 55.7985C96.5709 55.5717 96.2539 54.8872 96.4806 54.2694C96.4806 54.2694 96.4806 54.2694 96.4806 54.2691L96.8919 53.1511L99.9116 54.2596L100.249 54.3831ZM106.252 55.3184L91.1523 49.7736L91.5636 48.6548L100.511 51.9405C100.723 52.0175 100.96 51.9693 101.125 51.8152L102.797 50.2414L107.484 51.963L106.252 55.3184ZM110.28 52.9901C109.903 54.0079 108.887 54.6439 107.807 54.5391L108.728 52.0315L110.231 51.2572C110.466 51.8077 110.484 52.4273 110.28 52.9901ZM108.269 50.9302C108.238 50.9329 108.206 50.9384 108.176 50.9467L102.864 48.9963C102.652 48.9186 102.415 48.9668 102.25 49.1214L100.577 50.6954L88.6187 46.3042L90.8773 40.1544L113.168 48.4126L108.269 50.9302Z" fill="#E3B873"/>
<path d="M94.1292 46.7034L93.6038 48.1233M96.419 47.5434L95.8935 48.9633M98.641 48.3699L98.1155 49.7898" stroke="#E3B873" stroke-linecap="round"/>
</svg>
