<svg width="114" height="29" viewBox="0 0 114 29" fill="none" xmlns="http://www.w3.org/2000/svg">
<rect x="0.000610352" y="13.4717" width="32" height="1.54334" rx="0.771672" fill="#E3B873"/>
<rect x="82.0006" y="13.4717" width="32" height="1.54334" rx="0.771672" fill="#E3B873"/>
<g clip-path="url(#clip0)">
<path d="M56.5 9.35478C58.3054 9.35478 59.7742 7.88601 59.7742 6.08059C59.7742 4.27517 58.3054 2.8064 56.5 2.8064C54.6946 2.8064 53.2258 4.27517 53.2258 6.08059C53.2258 7.88601 54.6946 9.35478 56.5 9.35478ZM56.5 3.74188C57.7895 3.74188 58.8387 4.7911 58.8387 6.08059C58.8387 7.20975 58.0336 8.15459 56.9677 8.37202V6.54833H56.0322V8.37202C54.9663 8.15459 54.1613 7.2102 54.1613 6.08059C54.1613 4.7911 55.2105 3.74188 56.5 3.74188Z" fill="#E3B873"/>
<path d="M56.0322 5.14523C56.0322 4.88691 56.2416 4.67749 56.4999 4.67749C56.7583 4.67749 56.9677 4.88691 56.9677 5.14523C56.9677 5.40356 56.7583 5.61297 56.4999 5.61297C56.2416 5.61297 56.0322 5.40356 56.0322 5.14523Z" fill="#E3B873"/>
<path d="M56.5011 6.69775L56.5011 8.44864" stroke="#E3B873" stroke-linecap="round"/>
<path d="M69.1683 22.1373L66.7903 21.6089V20.9253C67.6374 20.3328 68.1935 19.3519 68.1935 18.2424V17.3069C68.1935 15.6609 66.9714 14.2983 65.3871 14.0702V11.8452L61.0646 10.1158L61.7322 9.44848L61.0641 8.44653C61.1989 8.18685 61.3113 7.91598 61.3996 7.63644L62.5806 7.3996V4.76169L61.4001 4.52531C61.3117 4.24576 61.1989 3.97489 61.0646 3.71521L61.7326 2.71327L59.8678 0.848467L58.8659 1.51651C58.6062 1.38176 58.3353 1.26939 58.0558 1.181L57.8189 0H55.1811L54.9447 1.18055C54.6651 1.26893 54.3942 1.38176 54.1346 1.51605L53.1326 0.848011L51.2678 2.71281L51.9359 3.71476C51.8011 3.97444 51.6887 4.24531 51.6004 4.52486L50.4194 4.76169V7.3996L51.5999 7.63598C51.6883 7.91553 51.8011 8.1864 51.9354 8.44608L51.2674 9.44802L51.9349 10.1154L47.6129 11.8447V14.0697C46.0286 14.2979 44.8065 15.6604 44.8065 17.3065V18.2419C44.8065 19.3519 45.3626 20.3328 46.2097 20.9248V21.6082L43.8317 22.1369C42.753 22.3767 42 23.3156 42 24.4199V29H71V24.4199C71 23.3156 70.247 22.3767 69.1683 22.1373ZM65.8548 21.8553C65.7388 22.0343 65.4166 22.4516 64.9194 22.4516C64.4222 22.4516 64.0999 22.0339 63.9839 21.8553V21.3786C64.2803 21.467 64.5944 21.5161 64.9194 21.5161C65.2444 21.5161 65.5584 21.467 65.8548 21.3782V21.8553ZM67.2581 17.3065V18.2419C67.2581 19.5314 66.2088 20.5806 64.9194 20.5806C63.6299 20.5806 62.5806 19.5314 62.5806 18.2419V17.3065C62.5806 16.017 63.6299 14.9677 64.9194 14.9677C66.2088 14.9677 67.2581 16.017 67.2581 17.3065ZM64.4516 12.4778V14.0697C62.8673 14.2979 61.6452 15.6604 61.6452 17.3065V18.2419C61.6452 19.3519 62.2013 20.3328 63.0484 20.9248V21.6082L60.7097 22.128L58.371 21.6082V20.9248C59.2181 20.3324 59.7742 19.3515 59.7742 18.2419V17.3065C59.7742 15.6604 58.5521 14.2979 56.9677 14.0697V12.1613H57.8189L58.0553 10.9807C58.3349 10.8924 58.6058 10.7795 58.8654 10.6452L59.8674 11.3133L60.3449 10.8357L64.4516 12.4778ZM61.6452 28.0645H51.3548V24.4199C51.3548 23.7571 51.8066 23.1939 52.4536 23.0498L54.8825 22.5101C55.15 22.8645 55.6819 23.3871 56.5 23.3871C57.3181 23.3871 57.85 22.8645 58.1175 22.5105L60.5464 23.0502C61.1934 23.1939 61.6452 23.7575 61.6452 24.4199V28.0645ZM56.5 14.9677C57.7895 14.9677 58.8387 16.017 58.8387 17.3065V18.2419C58.8387 19.5314 57.7895 20.5806 56.5 20.5806C55.2105 20.5806 54.1613 19.5314 54.1613 18.2419V17.3065C54.1613 16.017 55.2105 14.9677 56.5 14.9677ZM56.5 21.5161C56.825 21.5161 57.139 21.467 57.4355 21.3782V21.8548C57.3195 22.0343 56.9972 22.4516 56.5 22.4516C56.0028 22.4516 55.6805 22.0339 55.5645 21.8553V21.3786C55.861 21.467 56.175 21.5161 56.5 21.5161ZM51.3548 6.63266V5.52863L52.352 5.32901L52.4246 5.04376C52.5242 4.65161 52.679 4.27797 52.8844 3.93287L53.0353 3.67936L52.471 2.83272L53.2516 2.05208L54.0983 2.61666L54.3518 2.46547C54.6969 2.26014 55.0705 2.10484 55.4627 2.00572L55.7479 1.93309L55.948 0.935484H57.052L57.2516 1.93263L57.5369 2.00526C57.929 2.10484 58.3027 2.25969 58.6478 2.46501L58.9013 2.61597L59.7479 2.05162L60.5286 2.83226L59.964 3.6789L60.1152 3.93241C60.3205 4.27751 60.4758 4.65115 60.5749 5.0433L60.6476 5.32856L61.6452 5.52863V6.63266L60.648 6.83228L60.5754 7.11753C60.4758 7.50968 60.321 7.88332 60.1156 8.22842L59.9647 8.48193L60.529 9.32857L59.7484 10.1092L58.9017 9.54463L58.6482 9.69582C58.3031 9.90115 57.9295 10.0565 57.5373 10.1556L57.2521 10.2282L57.052 11.2258H55.948L55.7484 10.2287L55.4631 10.156C55.071 10.0565 54.6973 9.9016 54.3522 9.69628L54.0987 9.54532L53.2521 10.1097L52.4714 9.32903L53.036 8.48239L52.8848 8.22888C52.6795 7.88378 52.5242 7.51014 52.4251 7.11799L52.3524 6.83273L51.3548 6.63266ZM52.6551 10.8353L53.1326 11.3128L54.1346 10.6448C54.3942 10.7795 54.6651 10.8919 54.9447 10.9803L55.1811 12.1613H56.0323V14.0697C54.4479 14.2979 53.2258 15.6604 53.2258 17.3065V18.2419C53.2258 19.3519 53.7819 20.3328 54.629 20.9248V21.6082L52.2903 22.128L49.9516 21.6082V20.9248C50.7987 20.3324 51.3548 19.3515 51.3548 18.2419V17.3065C51.3548 15.6604 50.1327 14.2979 48.5484 14.0697V12.4778L52.6551 10.8353ZM45.7419 18.2419V17.3065C45.7419 16.017 46.7912 14.9677 48.0806 14.9677C49.3701 14.9677 50.4194 16.017 50.4194 17.3065V18.2419C50.4194 19.5314 49.3701 20.5806 48.0806 20.5806C46.7912 20.5806 45.7419 19.5314 45.7419 18.2419ZM48.0806 21.5161C48.4056 21.5161 48.7197 21.467 49.0161 21.3782V21.8548C48.9001 22.0343 48.5778 22.4516 48.0806 22.4516C47.5825 22.4516 47.2598 22.0325 47.1452 21.8553V21.3782C47.4416 21.467 47.7556 21.5161 48.0806 21.5161ZM42.9355 24.4199C42.9355 23.7571 43.3872 23.1939 44.0343 23.0498L46.4632 22.5101C46.7306 22.8645 47.2626 23.3871 48.0806 23.3871C48.8987 23.3871 49.4307 22.8645 49.6981 22.5105L51.0639 22.8141C50.6635 23.2354 50.4194 23.7987 50.4194 24.4199V28.0645H42.9355V24.4199ZM70.0645 28.0645H62.5806V24.4199C62.5806 23.7987 62.3365 23.235 61.9361 22.8136L63.3019 22.5101C63.5693 22.8645 64.1013 23.3871 64.9194 23.3871C65.7374 23.3871 66.2694 22.8645 66.5368 22.5105L68.9657 23.0502C69.6128 23.1939 70.0645 23.7575 70.0645 24.4199V28.0645Z" fill="#E3B873"/>
</g>
<defs>
<clipPath id="clip0">
<rect width="29" height="29" fill="white" transform="translate(42)"/>
</clipPath>
</defs>
</svg>
